<svg width="33" height="33" viewBox="0 0 33 33" fill="none" xmlns="http://www.w3.org/2000/svg">
<path d="M10.3128 28.2857H6.1877C5.04877 28.2857 4.12513 27.2302 4.12513 25.9286V7.07143C4.12513 5.76984 5.04877 4.71429 6.1877 4.71429H10.3128C11.4517 4.71429 12.3754 3.65873 12.3754 2.35714C12.3754 1.05556 11.4537 0 10.3128 0H6.1877C2.77028 0 0 3.16594 0 7.07143V25.9286C0 29.8341 2.77028 33 6.1877 33H10.3128C11.4517 33 12.3754 31.9444 12.3754 30.6429C12.3754 29.3413 11.4537 28.2857 10.3128 28.2857ZM32.3952 14.8353L24.1449 5.4067C23.3386 4.4852 22.0334 4.48667 21.2283 5.4067C20.4226 6.32746 20.4226 7.81908 21.2283 8.73984L25.9625 14.1429H12.3754C11.2345 14.1429 10.3128 15.1962 10.3128 16.5C10.3128 17.8038 11.2352 18.8571 12.3754 18.8571H25.9625L21.2328 24.2624C20.4271 25.1831 20.4271 26.6748 21.2328 27.5955C22.0385 28.5163 23.3437 28.5163 24.1494 27.5955L32.3997 18.1669C33.2009 17.244 33.2009 15.756 32.3952 14.8353Z" fill="#EE6767"/>
</svg>
