<svg width="25" height="25" viewBox="0 0 25 25" fill="none" xmlns="http://www.w3.org/2000/svg">
<mask id="path-1-inside-1_43_11" fill="white">
<path d="M24.9996 23.8085V1.19151C24.9996 0.535634 24.6272 -6.33303e-07 24.1655 -6.33303e-07H0.834172C0.374995 -6.33303e-07 0 0.53199 0 1.19151V23.8085C0 24.4644 0.372444 25 0.834172 25H24.168C25.043 25 24.9996 23.8085 24.9996 23.8085ZM6.66572 23.8085H0.834172V19.0461H6.66827V23.8085H6.66572ZM6.66572 17.8582H0.834172V13.0958H6.66827V17.8582H6.66572ZM6.66572 11.9079H0.834172V7.14546H6.66827V11.9079H6.66572ZM6.66572 5.95394H0.834172V1.19151H6.66827V5.95394H6.66572ZM12.4743 23.8085H7.49989V19.0461H12.4998L12.4743 23.8085ZM12.4743 17.8582H7.49989V13.0958H12.4998L12.4743 17.8582ZM7.49989 11.9079V7.14546H12.4743L12.4998 11.9079H7.49989ZM12.4998 5.95394H7.49989V1.19151H12.4998V5.95394ZM18.3339 23.8085H13.3595L13.3085 19.0461H18.3339V23.8085ZM18.3339 17.8582H13.3595L13.3085 13.0958H18.3339V17.8582ZM18.3339 11.9079H13.334L13.3085 7.14546H18.3339V11.9079ZM18.3339 5.95394H13.334L13.3085 1.19151H18.3339V5.95394ZM24.1655 23.8085H19.1655L19.14 19.0461H24.1655V23.8085ZM24.1655 17.8582H19.1655L19.14 13.0958H24.1655V17.8582ZM24.1655 11.9079H19.14V7.14546H24.1655V11.9079ZM24.1655 5.95394H19.1655L19.14 1.19151H24.1655V5.95394ZM5.8341 14.2873H1.66579V16.6667H5.83155V14.2873H5.8341ZM5.8341 20.2376H1.66579V22.617H5.83155V20.2376H5.8341ZM5.8341 8.33697H1.66579V10.7164H5.83155V8.33697H5.8341ZM11.6657 2.38303H8.33407V4.76242H11.6682V2.38303H11.6657ZM17.4998 2.38303H14.1656V4.76242H17.4998V2.38303ZM5.8341 2.38303H1.66579V4.76242H5.83155V2.38303H5.8341ZM23.3339 2.38303H19.9997V4.76242H23.3339V2.38303Z"/>
</mask>
<path d="M24.9996 23.8085V1.19151C24.9996 0.535634 24.6272 -6.33303e-07 24.1655 -6.33303e-07H0.834172C0.374995 -6.33303e-07 0 0.53199 0 1.19151V23.8085C0 24.4644 0.372444 25 0.834172 25H24.168C25.043 25 24.9996 23.8085 24.9996 23.8085ZM6.66572 23.8085H0.834172V19.0461H6.66827V23.8085H6.66572ZM6.66572 17.8582H0.834172V13.0958H6.66827V17.8582H6.66572ZM6.66572 11.9079H0.834172V7.14546H6.66827V11.9079H6.66572ZM6.66572 5.95394H0.834172V1.19151H6.66827V5.95394H6.66572ZM12.4743 23.8085H7.49989V19.0461H12.4998L12.4743 23.8085ZM12.4743 17.8582H7.49989V13.0958H12.4998L12.4743 17.8582ZM7.49989 11.9079V7.14546H12.4743L12.4998 11.9079H7.49989ZM12.4998 5.95394H7.49989V1.19151H12.4998V5.95394ZM18.3339 23.8085H13.3595L13.3085 19.0461H18.3339V23.8085ZM18.3339 17.8582H13.3595L13.3085 13.0958H18.3339V17.8582ZM18.3339 11.9079H13.334L13.3085 7.14546H18.3339V11.9079ZM18.3339 5.95394H13.334L13.3085 1.19151H18.3339V5.95394ZM24.1655 23.8085H19.1655L19.14 19.0461H24.1655V23.8085ZM24.1655 17.8582H19.1655L19.14 13.0958H24.1655V17.8582ZM24.1655 11.9079H19.14V7.14546H24.1655V11.9079ZM24.1655 5.95394H19.1655L19.14 1.19151H24.1655V5.95394ZM5.8341 14.2873H1.66579V16.6667H5.83155V14.2873H5.8341ZM5.8341 20.2376H1.66579V22.617H5.83155V20.2376H5.8341ZM5.8341 8.33697H1.66579V10.7164H5.83155V8.33697H5.8341ZM11.6657 2.38303H8.33407V4.76242H11.6682V2.38303H11.6657ZM17.4998 2.38303H14.1656V4.76242H17.4998V2.38303ZM5.8341 2.38303H1.66579V4.76242H5.83155V2.38303H5.8341ZM23.3339 2.38303H19.9997V4.76242H23.3339V2.38303Z" fill="#FF6D63" stroke="#FF6D63" stroke-width="2" mask="url(#path-1-inside-1_43_11)"/>
</svg>
