<svg width="131" height="131" viewBox="0 0 131 131" fill="none" xmlns="http://www.w3.org/2000/svg">
<rect x="3.13892" y="3.21521" width="125" height="125" rx="27.5" fill="#F8F9FD"/>
<g clip-path="url(#clip0_29_137)">
<path fill-rule="evenodd" clip-rule="evenodd" d="M40.0346 65.7153C40.0346 62.7924 40.5198 59.9897 41.3867 57.3614L26.2203 45.7803C23.2644 51.7814 21.5994 58.5441 21.5994 65.7153C21.5994 72.8808 23.263 79.6386 26.214 85.6362L41.3719 74.0325C40.5134 71.4162 40.0346 68.6241 40.0346 65.7153Z" fill="#FBBC05"/>
<path fill-rule="evenodd" clip-rule="evenodd" d="M66.6634 39.1244C73.0133 39.1244 78.7487 41.3744 83.255 45.056L96.3641 31.9652C88.3759 25.0106 78.1342 20.7152 66.6634 20.7152C48.8546 20.7152 33.549 30.8993 26.2203 45.7802L41.386 57.3614C44.8806 46.754 54.8417 39.1244 66.6634 39.1244Z" fill="#EA4335"/>
<path fill-rule="evenodd" clip-rule="evenodd" d="M66.6634 92.3059C54.8425 92.3059 44.8813 84.6763 41.3867 74.069L26.2203 85.648C33.549 100.531 48.8546 110.715 66.6634 110.715C77.6546 110.715 88.1488 106.812 96.0245 99.4996L81.6287 88.3705C77.5667 90.9292 72.4515 92.3059 66.6634 92.3059Z" fill="#34A853"/>
<path fill-rule="evenodd" clip-rule="evenodd" d="M109.678 65.7153C109.678 63.056 109.268 60.1922 108.654 57.5337H66.6633V74.9199H90.834C89.6253 80.8479 86.3361 85.4049 81.6286 88.3706L96.0244 99.4997C104.297 91.8216 109.678 80.3831 109.678 65.7153Z" fill="#4285F4"/>
</g>
<rect x="3.13892" y="3.21521" width="125" height="125" rx="27.5" stroke="#EFF2F2" stroke-width="5"/>
<defs>
<clipPath id="clip0_29_137">
<rect width="90" height="90" fill="white" transform="translate(20.6389 20.7152)"/>
</clipPath>
</defs>
</svg>
