<svg width="652" height="578" viewBox="0 0 652 578" fill="none" xmlns="http://www.w3.org/2000/svg">
<g clip-path="url(#clip0_29_155)">
<path d="M256.386 362.738C256.587 361.019 256.486 359.265 256.09 357.601C255.694 355.936 255.013 354.401 254.095 353.104C253.177 351.806 252.044 350.778 250.776 350.091C249.508 349.404 248.136 349.076 246.756 349.129L186.285 272.16L174.339 293.183L237.537 362.23C237.761 365.142 238.826 367.849 240.53 369.838C242.234 371.827 244.459 372.961 246.782 373.023C249.105 373.086 251.366 372.074 253.136 370.178C254.906 368.282 256.063 365.635 256.386 362.738V362.738Z" fill="#FFB8B8"/>
<path d="M227.741 318.294L212.306 337.703C211.567 338.627 210.569 339.148 209.527 339.153C208.485 339.158 207.484 338.648 206.739 337.731L164.563 285.533C163.105 283.728 161.945 281.578 161.152 279.205C160.358 276.832 159.946 274.285 159.939 271.711C159.932 269.137 160.331 266.586 161.112 264.207C161.893 261.828 163.041 259.667 164.49 257.85C165.938 256.033 167.659 254.596 169.551 253.621C171.444 252.646 173.471 252.153 175.516 252.171C177.561 252.188 179.583 252.716 181.465 253.724C183.347 254.731 185.051 256.199 186.48 258.041L227.776 311.294C228.5 312.234 228.902 313.494 228.895 314.803C228.889 316.112 228.474 317.366 227.741 318.294V318.294Z" fill="#F34D4D"/>
<path d="M173.61 223.028C185.532 223.028 195.197 210.862 195.197 195.854C195.197 180.846 185.532 168.68 173.61 168.68C161.688 168.68 152.024 180.846 152.024 195.854C152.024 210.862 161.688 223.028 173.61 223.028Z" fill="#FFB8B8"/>
<path d="M100.67 521.493L106.136 533.182L144.554 512.206L136.487 494.953L100.67 521.493Z" fill="#FFB8B8"/>
<path d="M102.308 516.265L113.072 539.286L113.073 539.287C113.974 541.213 114.564 543.345 114.811 545.558C115.057 547.772 114.955 550.026 114.51 552.19C114.064 554.354 113.285 556.387 112.216 558.171C111.146 559.956 109.808 561.459 108.278 562.593L107.899 562.873L90.2754 525.182L102.308 516.265Z" fill="#2F2E41"/>
<path d="M164.001 563.605H174.776L179.901 511.286L163.999 511.287L164.001 563.605Z" fill="#FFB8B8"/>
<path d="M161.252 559.177L182.472 559.176H182.473C184.249 559.175 186.007 559.616 187.648 560.471C189.289 561.327 190.78 562.581 192.035 564.161C193.291 565.742 194.287 567.619 194.967 569.684C195.646 571.749 195.996 573.963 195.996 576.199V576.752L161.253 576.754L161.252 559.177Z" fill="#2F2E41"/>
<path d="M120.682 531.907C120.061 531.908 119.45 531.724 118.897 531.372C118.343 531.02 117.864 530.508 117.496 529.879L107.105 512.112C106.788 511.57 106.561 510.953 106.439 510.297C106.317 509.642 106.302 508.963 106.394 508.3C106.486 507.637 106.685 507.004 106.977 506.441C107.269 505.877 107.648 505.393 108.093 505.02L154.335 466.139L126.433 373.783L186.1 379.982L188.11 459.347C188.298 466.575 186.922 473.732 184.129 480.051C181.335 486.37 177.229 491.613 172.25 495.221L122.658 531.238C122.057 531.676 121.376 531.907 120.682 531.907V531.907Z" fill="#2F2E41"/>
<path d="M164.326 552.984C163.303 552.981 162.32 552.48 161.584 551.584C160.849 550.689 160.417 549.469 160.381 548.182L158.194 470.865L185.271 469.069L183.115 546.942C183.083 548.175 182.688 549.35 182.005 550.236C181.323 551.123 180.403 551.657 179.424 551.736L164.595 552.973C164.505 552.98 164.415 552.984 164.326 552.984Z" fill="#2F2E41"/>
<path d="M193.006 395.335C186.116 395.335 162.054 385.581 153.701 382.104C152.451 383.363 145.586 389.825 137.572 388.644C132.627 387.914 128.274 384.39 124.634 378.171C116.595 364.436 126.524 305.535 136.27 258.541C138.223 249.042 143.026 240.867 149.669 235.733C156.312 230.6 164.277 228.908 171.89 231.014V231.014C177.407 232.548 182.476 235.988 186.526 240.948C190.577 245.908 193.448 252.191 194.818 259.092C196.653 268.494 195.074 279.554 193.922 287.63C193.38 291.427 192.952 294.427 193.098 295.9C193.664 301.597 196.806 390.93 194.786 394.745C194.57 395.152 193.948 395.335 193.006 395.335Z" fill="#F34D4D"/>
<path d="M167.803 395.494C168.911 394.456 169.824 393.125 170.478 391.596C171.133 390.066 171.513 388.374 171.592 386.639C171.671 384.904 171.446 383.169 170.935 381.555C170.423 379.941 169.637 378.488 168.631 377.298L169.058 269.045L148.804 273.29L154.753 378.365C153.277 380.625 152.511 383.487 152.6 386.411C152.689 389.334 153.626 392.115 155.235 394.226C156.843 396.338 159.011 397.633 161.328 397.866C163.644 398.1 165.948 397.256 167.803 395.494V395.494Z" fill="#FFB8B8"/>
<path d="M172.488 338.566H150.672C149.631 338.562 148.632 338.042 147.892 337.119C147.152 336.196 146.73 334.944 146.717 333.632L146.182 259.181C146.163 256.606 146.55 254.053 147.321 251.668C148.091 249.283 149.229 247.114 150.67 245.287C152.11 243.459 153.824 242.009 155.712 241.02C157.601 240.032 159.626 239.525 161.671 239.528C163.716 239.531 165.741 240.045 167.627 241.039C169.514 242.033 171.225 243.488 172.662 245.32C174.098 247.152 175.232 249.325 175.998 251.712C176.764 254.099 177.146 256.654 177.122 259.228L176.443 333.644C176.427 334.953 176.004 336.202 175.265 337.123C174.525 338.043 173.528 338.561 172.488 338.566V338.566Z" fill="#F34D4D"/>
<path d="M168.114 222.915C158.231 222.938 148.907 213.104 147.194 200.85C146.581 196.036 146.857 191.109 148.002 186.452C149.245 181.15 151.376 176.245 154.252 172.067C157.128 167.89 160.682 164.537 164.675 162.236C168.668 159.934 173.006 158.736 177.397 158.724C181.788 158.711 186.131 159.884 190.132 162.163C192.776 163.669 195.38 165.833 196.59 169.153C197.801 172.473 197.043 177.114 194.395 178.608C192.664 179.584 190.493 179.104 188.957 180.506C186.752 182.519 187.32 186.803 188.304 190C189.289 193.197 190.403 197.066 188.752 199.794C187.214 202.336 184.139 202.257 181.717 201.3C179.295 200.344 176.905 198.742 174.38 199.067C170.697 199.543 168.05 204.154 167.56 208.774C167.07 213.393 168.224 218.011 169.362 222.446L168.114 222.915Z" fill="#2F2E41"/>
<path d="M438.23 250.649C438.23 176.337 486.084 0 545.115 0C604.146 0 652 176.337 652 250.649C652 286.334 640.739 320.558 620.694 345.792C600.649 371.025 573.463 385.201 545.115 385.201C516.767 385.201 489.581 371.025 469.536 345.792C449.491 320.558 438.23 286.334 438.23 250.649V250.649Z" fill="#F34D4D"/>
<path d="M545.115 578C544.882 578 544.658 577.883 544.494 577.676C544.329 577.468 544.236 577.187 544.236 576.894V113C544.236 112.707 544.329 112.425 544.494 112.218C544.658 112.01 544.882 111.894 545.115 111.894C545.348 111.894 545.572 112.01 545.736 112.218C545.901 112.425 545.994 112.707 545.994 113V576.894C545.994 577.187 545.901 577.468 545.736 577.676C545.572 577.883 545.348 578 545.115 578Z" fill="#3F3D56"/>
<path d="M545.115 202.558C545 202.558 544.885 202.53 544.779 202.474C544.672 202.419 544.575 202.337 544.494 202.234L502.189 148.979C502.026 148.771 501.935 148.49 501.935 148.198C501.936 147.905 502.029 147.625 502.193 147.419C502.357 147.212 502.579 147.096 502.811 147.095C503.044 147.094 503.267 147.209 503.432 147.414L545.737 200.669C545.859 200.824 545.943 201.021 545.977 201.236C546.011 201.451 545.994 201.673 545.927 201.875C545.86 202.077 545.748 202.25 545.603 202.372C545.459 202.493 545.289 202.558 545.115 202.558V202.558Z" fill="#3F3D56"/>
<path d="M545.115 294.754C544.941 294.754 544.771 294.689 544.627 294.568C544.482 294.446 544.37 294.273 544.303 294.071C544.237 293.869 544.219 293.646 544.253 293.432C544.287 293.217 544.371 293.02 544.494 292.865L615.341 203.679C615.506 203.473 615.729 203.359 615.961 203.36C616.193 203.361 616.415 203.477 616.579 203.684C616.743 203.89 616.836 204.17 616.837 204.462C616.838 204.754 616.747 205.035 616.584 205.243L545.737 294.43C545.655 294.533 545.558 294.614 545.452 294.67C545.345 294.726 545.231 294.754 545.115 294.754V294.754Z" fill="#3F3D56"/>
<path d="M249.321 362.109C263.343 358.118 279.23 371.926 279.722 390.463C279.861 395.677 278.647 401.152 275.46 404.699C272.829 407.628 268.913 409.104 265.512 407.673C258.967 404.919 258.617 393.437 262.128 387.305C266.882 379.002 276.301 377.584 283.775 378.572C292.912 379.779 301.596 384.822 308.883 391.735C323.471 405.574 332.761 426.783 340.279 447.275C347.977 468.296 353.574 490.438 356.942 513.193C357.366 516.051 357.755 518.917 358.108 521.79C358.207 522.211 358.435 522.566 358.741 522.777C359.047 522.989 359.406 523.04 359.742 522.92C360.073 522.788 360.351 522.5 360.518 522.117C360.685 521.734 360.728 521.285 360.64 520.863C357.562 496.031 351.877 471.825 343.735 448.879C335.862 426.67 325.937 403.635 310.148 388.814C302.277 381.425 292.983 376.284 283.147 375.185C274.866 374.259 265.06 376.465 259.911 385.531C255.848 392.683 256.261 404.57 262.547 409.551C266.003 412.29 270.394 411.97 273.982 409.841C275.886 408.657 277.563 406.966 278.897 404.885C280.23 402.805 281.188 400.384 281.704 397.791C283.936 387.495 280.547 376.36 274.736 369.001C269.283 362.075 261.871 358.152 254.125 358.09C252.259 358.115 250.402 358.394 248.584 358.921C246.928 359.392 247.668 362.579 249.321 362.109V362.109Z" fill="#CCCCCC"/>
<path d="M316.946 565.976L308.232 547.246L318.977 539.324L327.691 558.052V558.053C328.525 559.847 328.76 561.984 328.342 563.995C327.925 566.007 326.89 567.727 325.465 568.777C324.04 569.828 322.342 570.123 320.744 569.598C319.147 569.072 317.78 567.769 316.946 565.976Z" fill="#F34D4D"/>
<path d="M288.133 527.046C292.366 527.046 295.796 522.727 295.796 517.399C295.796 512.072 292.366 507.753 288.133 507.753C283.901 507.753 280.47 512.072 280.47 517.399C280.47 522.727 283.901 527.046 288.133 527.046Z" fill="#F34D4D"/>
<path d="M350.661 565.976L341.947 547.246L352.692 539.324L361.406 558.052C362.239 559.846 362.472 561.982 362.054 563.992C361.636 566.002 360.601 567.72 359.177 568.77C357.754 569.82 356.057 570.116 354.46 569.592C352.863 569.068 351.497 567.767 350.661 565.976V565.976Z" fill="#F34D4D"/>
<path d="M289.589 536.833C289.594 531.398 291.311 526.188 294.364 522.345C297.417 518.502 301.556 516.34 305.873 516.334H357.421C359.246 516.337 360.995 517.251 362.285 518.875C363.576 520.499 364.302 522.701 364.304 524.999V532.383C364.298 538.997 362.208 545.339 358.492 550.016C354.777 554.694 349.739 557.325 344.484 557.332H305.873C301.556 557.326 297.417 555.164 294.364 551.321C291.311 547.478 289.594 542.268 289.589 536.833V536.833Z" fill="#3F3D56"/>
<path d="M301.477 568.391V546.686H313.929V568.391C313.929 570.469 313.273 572.463 312.105 573.933C310.938 575.403 309.354 576.229 307.703 576.229C306.052 576.229 304.468 575.403 303.3 573.933C302.133 572.463 301.477 570.469 301.477 568.391Z" fill="#3F3D56"/>
<path d="M337.61 568.391V546.686H350.062V568.391C350.063 569.421 349.903 570.441 349.591 571.393C349.278 572.345 348.82 573.21 348.241 573.939C347.663 574.668 346.977 575.246 346.221 575.64C345.465 576.035 344.655 576.238 343.836 576.238C343.018 576.238 342.208 576.035 341.452 575.64C340.696 575.246 340.009 574.668 339.431 573.939C338.853 573.21 338.394 572.345 338.082 571.393C337.769 570.441 337.609 569.421 337.61 568.391V568.391Z" fill="#3F3D56"/>
<path d="M388.274 482.517C389.548 480.528 391.397 479.256 393.415 478.982C395.433 478.707 397.455 479.451 399.037 481.051C400.62 482.651 401.633 484.976 401.856 487.516C402.078 490.056 401.491 492.603 400.223 494.598L387.627 514.341L375.678 502.26L388.274 482.517Z" fill="#F34D4D"/>
<path d="M357.932 521.41L368.023 505.593C370.477 501.756 374.039 499.301 377.929 498.766C381.819 498.232 385.718 499.661 388.772 502.741L391.924 505.929C395.559 509.612 397.884 514.959 398.39 520.797C398.896 526.635 397.542 532.488 394.625 537.071L386.311 550.102C385.393 551.539 384.059 552.458 382.602 552.658C381.146 552.858 379.686 552.323 378.543 551.17L358.78 531.189C357.639 530.032 356.909 528.353 356.75 526.52C356.591 524.687 357.016 522.849 357.932 521.41V521.41Z" fill="#3F3D56"/>
<path d="M389.773 480.167C390.207 479.487 390.742 478.922 391.348 478.504C391.955 478.085 392.621 477.821 393.309 477.727C393.997 477.632 394.693 477.709 395.357 477.953C396.021 478.197 396.64 478.603 397.18 479.149C397.719 479.694 398.168 480.368 398.501 481.131C398.833 481.895 399.043 482.734 399.118 483.6C399.193 484.465 399.132 485.341 398.938 486.177C398.744 487.013 398.422 487.793 397.988 488.472L383.893 510.566L375.678 502.26L389.773 480.167Z" fill="#3F3D56"/>
<path d="M369.58 517.096L391.238 538.994C392.817 540.598 393.826 542.925 394.043 545.465C394.261 548.004 393.67 550.548 392.399 552.54C391.129 554.531 389.283 555.807 387.266 556.087C385.249 556.368 383.227 555.63 381.641 554.036L359.983 532.139L369.58 517.096Z" fill="#3F3D56"/>
<path d="M393.342 553.27C394.46 551.518 394.739 549.463 393.966 548.681C393.192 547.899 391.659 548.686 390.541 550.438C389.423 552.191 389.144 554.245 389.917 555.027C390.69 555.809 392.224 555.022 393.342 553.27Z" fill="#F34D4D"/>
<path d="M608.191 577.795H0.878888C0.645793 577.795 0.422243 577.678 0.25742 577.471C0.0925962 577.263 0 576.982 0 576.688C0 576.395 0.0925962 576.114 0.25742 575.906C0.422243 575.699 0.645793 575.582 0.878888 575.582H608.191C608.424 575.582 608.648 575.699 608.812 575.906C608.977 576.114 609.07 576.395 609.07 576.688C609.07 576.982 608.977 577.263 608.812 577.471C608.648 577.678 608.424 577.795 608.191 577.795Z" fill="#CCCCCC"/>
</g>
<defs>
<clipPath id="clip0_29_155">
<rect width="652" height="578" fill="white"/>
</clipPath>
</defs>
</svg>
