<svg width="380" height="306" viewBox="0 0 380 306" fill="none" xmlns="http://www.w3.org/2000/svg">
<g clip-path="url(#clip0_24_90)">
<path d="M62.7936 216.041C60.9625 216.273 58.965 216.622 56.8403 217.133C47.8313 219.298 47.6443 226.52 47.7232 228.175L47.662 228.13C46.7562 229.845 46.1888 231.581 45.8459 233.22L45.4334 211.088C45.7001 210.431 45.9428 209.687 46.1452 208.924C46.8196 211.375 47.925 213.691 48.878 213.538C50.1171 213.338 50.6573 209.034 50.4261 205.976C52.0018 208.371 54.6537 210.933 55.6541 210.143C56.4535 209.512 55.9795 206.913 55.1067 204.55C56.9252 205.844 58.9393 206.694 59.5642 205.872C60.4171 204.752 58.3735 200.928 56.4889 198.794C59.0116 199.071 62.22 198.597 62.4303 197.242C62.6036 196.125 60.6941 194.716 58.6503 193.809C60.7032 193.17 62.6229 192.057 62.5592 190.955C62.4836 189.647 59.6335 188.77 57.1748 188.637C59.0293 186.924 60.7333 184.557 60.2122 183.486C59.7331 182.502 57.5045 182.883 55.4483 183.75C56.6651 181.696 57.5206 179.382 56.8691 178.59C56.0575 177.604 53.1771 179.306 51.2113 181.188C51.594 178.256 51.4005 174.555 50.2865 174.221C49.3544 173.94 48.0335 176.093 47.1279 178.439C46.7276 175.977 45.9173 173.641 44.9822 173.641C43.6499 173.641 42.57 178.382 42.57 181.471C42.57 181.646 42.5739 181.81 42.5807 181.967C42.4469 181.784 42.2937 181.593 42.1189 181.393C40.2417 179.241 36.6078 176.852 35.6797 177.98C35.0282 178.772 35.8837 181.086 37.1005 183.14C35.0443 182.273 32.8157 181.891 32.3366 182.876C31.6929 184.198 34.4444 187.5 36.681 189.102C36.5466 189.083 36.4053 189.066 36.255 189.054C33.6442 188.844 29.5634 189.793 29.4727 191.362C29.409 192.463 31.3287 193.577 33.3816 194.216C31.3378 195.123 29.4282 196.532 29.6016 197.648C29.8119 199.004 33.0203 199.478 35.543 199.2C33.6584 201.335 31.6148 205.159 32.4677 206.279C33.0926 207.101 35.1067 206.251 36.9251 204.957C36.0524 207.32 35.5784 209.919 36.3778 210.55C37.4342 211.384 40.3315 208.481 41.8591 205.982C41.7035 209.039 42.323 213.237 43.5522 213.403C44.0663 213.472 44.611 212.825 45.1026 211.829L43.7103 235.618C43.3848 238.388 45.4666 240.196 45.6527 241.337L45.953 257.447C45.614 256.3 45.1575 255.125 44.5422 253.96L44.481 254.005C44.5599 252.349 44.3728 245.129 35.3639 242.963C33.2391 242.452 31.2417 242.103 29.4106 241.871C27.2493 241.596 26.4062 245.089 28.3587 246.217C31.1864 247.851 33.8463 249.909 35.2327 252.346C38.7772 258.578 43.6748 254.976 44.3711 254.417C45.1489 255.945 45.6589 257.485 45.981 258.95L46.1405 267.505C46.1014 267.707 46.0743 267.82 46.0722 267.829L46.147 267.855L46.5329 288.559L50.1131 288.525L48.8326 267.362C49.0477 266.221 49.7098 262.332 48.8326 258.293L47.552 241.665C47.5488 241.652 47.6247 242.101 47.552 241.665L45.8815 235.131C46.1244 233.11 46.6882 230.836 47.8331 228.586C48.5294 229.146 53.4269 232.748 56.9715 226.516C58.3579 224.079 61.0178 222.02 63.8455 220.387C65.798 219.259 64.9549 215.766 62.7935 216.041L62.7936 216.041ZM46.4388 265.026L46.3713 261.405C46.5075 262.774 46.5006 264.01 46.4388 265.026Z" fill="#F2F2F2"/>
<path d="M336.787 216.041C334.956 216.273 332.959 216.622 330.834 217.133C321.825 219.298 321.638 226.52 321.717 228.175L321.656 228.13C320.75 229.845 320.183 231.581 319.84 233.22L319.427 211.088C319.694 210.431 319.937 209.687 320.139 208.924C320.813 211.375 321.919 213.691 322.872 213.538C324.111 213.338 324.651 209.034 324.42 205.976C325.996 208.371 328.648 210.933 329.648 210.143C330.447 209.512 329.973 206.913 329.101 204.55C330.919 205.844 332.933 206.694 333.558 205.872C334.411 204.752 332.367 200.928 330.483 198.794C333.005 199.071 336.214 198.597 336.424 197.242C336.598 196.125 334.688 194.716 332.644 193.809C334.697 193.17 336.617 192.057 336.553 190.955C336.477 189.647 333.627 188.77 331.169 188.637C333.023 186.924 334.727 184.557 334.206 183.486C333.727 182.502 331.498 182.883 329.442 183.75C330.659 181.696 331.514 179.382 330.863 178.59C330.051 177.604 327.171 179.306 325.205 181.188C325.588 178.256 325.394 174.555 324.28 174.221C323.348 173.94 322.027 176.093 321.122 178.439C320.722 175.977 319.911 173.641 318.976 173.641C317.644 173.641 316.564 178.382 316.564 181.471C316.564 181.646 316.568 181.81 316.575 181.967C316.441 181.784 316.288 181.593 316.113 181.393C314.236 179.241 310.602 176.852 309.674 177.98C309.022 178.772 309.878 181.086 311.094 183.14C309.038 182.273 306.81 181.891 306.33 182.876C305.687 184.198 308.438 187.5 310.675 189.102C310.54 189.083 310.399 189.066 310.249 189.054C307.638 188.844 303.557 189.793 303.467 191.362C303.403 192.463 305.323 193.577 307.375 194.216C305.332 195.123 303.422 196.532 303.595 197.648C303.806 199.004 307.014 199.478 309.537 199.2C307.652 201.335 305.609 205.159 306.462 206.279C307.087 207.101 309.101 206.251 310.919 204.957C310.046 207.32 309.572 209.919 310.372 210.55C311.428 211.384 314.325 208.481 315.853 205.982C315.697 209.039 316.317 213.237 317.546 213.403C318.06 213.472 318.605 212.825 319.096 211.829L317.704 235.618C317.379 238.388 319.46 240.196 319.647 241.337L319.947 257.447C319.608 256.3 319.151 255.125 318.536 253.96L318.475 254.005C318.554 252.349 318.367 245.129 309.358 242.963C307.233 242.452 305.236 242.103 303.405 241.871C301.243 241.596 300.4 245.089 302.353 246.217C305.18 247.851 307.84 249.909 309.227 252.346C312.771 258.578 317.669 254.976 318.365 254.417C319.143 255.945 319.653 257.485 319.975 258.95L320.134 267.505C320.095 267.707 320.068 267.82 320.066 267.829L320.141 267.855L320.527 288.559L324.107 288.525L322.826 267.362C323.042 266.221 323.704 262.332 322.826 258.293L321.546 241.665C321.543 241.652 321.619 242.101 321.546 241.665L319.875 235.131C320.118 233.11 320.682 230.836 321.827 228.586C322.523 229.146 327.421 232.748 330.965 226.516C332.352 224.079 335.012 222.02 337.839 220.387C339.792 219.259 338.949 215.766 336.787 216.041V216.041ZM320.433 265.026L320.365 261.405C320.501 262.774 320.494 264.01 320.433 265.026Z" fill="#F2F2F2"/>
<path d="M281.202 148.285L279.523 101.039C279.523 101.039 277.637 72.9909 276.128 63.1962C274.62 53.4015 264.436 56.0727 264.436 56.0727L265.568 84.1213L270.45 112.825L274.25 151.912C274.054 153.043 273.943 154.272 273.943 155.562C273.943 161.038 275.88 165.477 278.27 165.477C280.66 165.477 282.597 161.038 282.597 155.562C282.597 152.682 282.058 150.096 281.202 148.285V148.285Z" fill="#FFB6B6"/>
<path d="M199.481 136.043C201.266 133.533 203.404 131.827 205.324 131.171L227.904 101.039C227.904 101.039 229.79 72.9909 231.299 63.1962C232.807 53.4015 242.991 56.0727 242.991 56.0727L241.859 84.1213L235.447 114.396L209.025 140.876C208.564 141.868 207.998 142.86 207.32 143.813C204.106 148.332 199.745 150.257 197.58 148.111C195.415 145.966 196.266 140.563 199.481 136.043V136.043Z" fill="#FFB6B6"/>
<path d="M249.161 52.2885L251.781 40.4018L261.985 39.8224L265.038 56.2078L249.161 52.2885Z" fill="#FFB6B6"/>
<path opacity="0.1" d="M249.161 52.2885L251.781 40.4018L261.985 39.8224L265.038 56.2078L249.161 52.2885Z" fill="black"/>
<path d="M223.105 247.024L213.547 246.379L214.801 281.003L221.277 281.44L223.105 247.024Z" fill="#FFB6B6"/>
<path d="M213.973 270.055L217.291 271.842L217.287 274.217C217.287 274.217 218.088 271.469 222.385 270.869L222.898 273.171C222.898 273.171 224.565 275.43 224.279 279.515L223.185 290.454L219.944 290.365L219.421 282.754C219.421 282.754 218.528 281.026 214.415 289.234C214.415 289.234 209.885 290.582 202.87 287.805C201.906 287.423 201.236 286.361 201.248 285.16C201.255 284.498 201.475 283.886 202.178 283.666C203.97 283.107 205.719 283.816 206.876 282.128C208.032 280.441 213.973 270.055 213.973 270.055V270.055Z" fill="#2F2E41"/>
<path d="M274.398 247.024L264.841 246.379L266.095 281.003L272.571 281.44L274.398 247.024Z" fill="#FFB6B6"/>
<path d="M265.267 270.055L268.585 271.842L268.581 274.217C268.581 274.217 269.382 271.469 273.679 270.869L274.192 273.171C274.192 273.171 275.859 275.43 275.573 279.515L274.479 290.454L271.238 290.365L270.715 282.754C270.715 282.754 269.822 281.026 265.709 289.234C265.709 289.234 261.179 290.582 254.164 287.805C253.2 287.423 252.53 286.361 252.542 285.16C252.549 284.498 252.769 283.886 253.472 283.666C255.264 283.107 257.013 283.816 258.17 282.128C259.326 280.441 265.267 270.055 265.267 270.055V270.055Z" fill="#2F2E41"/>
<path d="M257.007 47.4019C263.256 47.4019 268.322 41.422 268.322 34.0454C268.322 26.6689 263.256 20.689 257.007 20.689C250.758 20.689 245.692 26.6689 245.692 34.0454C245.692 41.422 250.758 47.4019 257.007 47.4019Z" fill="#FFB6B6"/>
<path d="M263.423 36.2657C263.423 36.2657 258.449 26.6572 253.469 27.7177C248.489 28.7783 245.893 29.7358 245.893 29.7358C245.893 29.7358 243.865 22.0748 250.674 18.3993C250.674 18.3993 241.039 8.87695 251.307 2.7658C261.576 -3.34535 267.966 2.57734 267.966 2.57734C267.966 2.57734 276.465 11.0857 267.042 18.9598C267.042 18.9598 275.197 29.9263 266.96 40.4018C266.96 40.4018 268.414 32.4253 266.436 34.0605C264.458 35.6958 263.423 36.2657 263.423 36.2657V36.2657Z" fill="#2F2E41"/>
<path d="M264.625 53.1789L249.161 50.9528L237.281 62.3058C237.281 62.3058 231.372 81.7396 235.772 93.4709C235.878 93.752 235.961 113.283 235.961 113.283H268.815C268.815 113.283 268.784 99.9891 270.039 95.1743C270.218 94.4865 270.424 93.9717 270.66 93.6935C272.545 91.4674 277.071 77.2205 274.808 70.9875C272.545 64.7545 264.625 53.1789 264.625 53.1789V53.1789Z" fill="#F34D4D"/>
<path d="M235.772 112.392L215.028 190.305L210.502 251.745H223.137L233.886 194.757L248.689 161.769L263.305 256.197H276.059L275.751 128.42L268.789 112.392H235.772Z" fill="#2F2E41"/>
<path d="M380 288.666H0V290.034H380V288.666Z" fill="#3F3D56"/>
<path d="M194.787 128.161C191.02 121.001 182.233 119.317 175.706 122.732C169.179 126.148 164.667 133.43 161.6 141.04C158.533 148.651 156.604 156.851 153.452 164.412C144.177 186.662 125.394 201.193 113.579 221.697C104.702 237.102 100.001 255.807 100.325 274.435C100.449 281.57 101.426 289.076 105.198 294.653C110.797 302.931 120.71 304.629 129.636 305.719C134.821 306.352 141.184 306.334 143.854 301.05C144.911 298.96 133.56 291.667 133.743 289.243C134.725 276.16 147.265 267.852 148.248 254.77C149.788 263.885 147.814 273.296 148.125 282.584C148.437 291.873 152.315 302.379 160.02 304.299C162.398 304.892 165.082 304.482 166.884 302.557C168.686 300.633 169.212 296.998 167.607 294.844C169.251 296.826 172.025 297.341 174.105 296.051C176.184 294.76 177.398 291.771 176.947 289.049C176.616 287.047 175.521 285.364 174.574 283.658C169.441 274.42 168.103 262.382 171.045 251.894C176.246 233.354 193.324 221.252 196.217 202.023C198.365 187.743 192.236 171.561 198.74 159.257C201.671 153.711 206.649 150.216 210.619 145.659C214.588 141.103 217.693 134.131 215.421 128.171L195.13 128.144" fill="#3F3D56"/>
<path d="M132.211 291.832C131.706 291.832 131.189 291.673 130.689 291.356C129.537 290.627 128.668 289.185 128.476 287.683C128.155 285.184 129.163 282.758 129.974 280.808C132.19 275.475 134.381 269.773 134.704 263.848C135.056 257.379 132.833 251.383 129.041 248.571C126.222 246.483 122.459 245.945 118.445 247.06C114.889 248.047 111.695 250.064 108.185 252.405C107.907 252.591 107.554 252.475 107.396 252.146C107.239 251.817 107.337 251.4 107.616 251.214C111.072 248.909 114.48 246.755 118.179 245.728C122.498 244.53 126.574 245.128 129.657 247.413C133.805 250.488 136.239 256.973 135.86 263.936C135.523 270.11 133.281 275.954 131.014 281.41C130.236 283.281 129.355 285.403 129.621 287.478C129.759 288.553 130.408 289.627 131.236 290.151C131.64 290.407 132.255 290.637 132.894 290.286C133.185 290.126 133.529 290.275 133.664 290.617C133.799 290.959 133.674 291.366 133.384 291.525C133.011 291.73 132.615 291.832 132.211 291.832V291.832Z" fill="#2F2E41"/>
<path d="M176.603 127.692C175.845 130.144 176.857 132.893 178.259 134.911C179.662 136.93 181.463 138.553 182.699 140.718C185.29 145.256 184.901 151.46 182.911 156.402C180.92 161.344 177.565 165.303 174.273 169.157C174.517 167.505 173.809 165.836 172.844 164.605C171.879 163.373 170.665 162.459 169.586 161.368C164.563 156.284 162.991 147.02 165.969 140.045" fill="#2F2E41"/>
<path d="M107.989 273.59C103.733 272.975 100.139 277.494 95.8921 278.187C90.9814 278.989 86.4652 274.402 84.2803 269.149C82.0954 263.896 81.5347 257.934 80.0315 252.357C78.5284 246.781 75.6284 241.132 70.9038 239.36C68.9216 238.616 66.6789 238.657 64.8375 239.798C62.996 240.94 61.6464 243.27 61.6925 245.725C61.7492 248.745 63.7113 251.162 64.9 253.838C66.7914 258.095 66.7327 263.137 67.5682 267.841C69.5769 279.153 77.3717 288.745 86.8624 291.585C91.7704 293.054 97.2646 292.717 101.516 289.472C105.768 286.226 108.359 279.689 106.785 274.008" fill="#3F3D56"/>
</g>
<defs>
<clipPath id="clip0_24_90">
<rect width="380" height="306" fill="white"/>
</clipPath>
</defs>
</svg>
